<?xml version="1.0" encoding="utf-8"?>
<!-- Generator: Adobe Illustrator 19.0.0, SVG Export Plug-In . SVG Version: 6.00 Build 0)  -->
<svg version="1.1" id="Layer_1" xmlns="http://www.w3.org/2000/svg" xmlns:xlink="http://www.w3.org/1999/xlink" x="0px" y="0px"
	 viewBox="-255 347 100 100" style="enable-background:new -255 347 100 100;" xml:space="preserve">
<style type="text/css">
	.st0{fill:#FFFFFF;}
</style>
<path class="st0" d="M-180.2,384.2c-0.9,2-1.9,3.7-3.1,5.4c0.6-9-0.9-18.9-9.9-22.3c-14.7-5.4-29.8,4-37.1,16.5
	c-7.3,12.5-5.4,28.1,5.4,37.7c10.4,9.3,25.6,8,34.9-2c2.7-2.9-1.7-7.3-4.4-4.4c-7.2,7.7-16.4,8.2-25.1,2.7
	c-9.4-5.9-10.2-17.5-7.2-27c3.6-11.3,14.4-18.4,25.9-18.8c11.7-0.4,12.1,11.9,10.9,20.8c-2.1-3.7-4-7.5-5.4-11.8
	c-1.2-3.8-7.2-1.8-6,2c2.4,7.7,6.3,14.9,10.4,21.8c1.2,2,4.1,2.1,5.4,0.2c3.6-5.6,7.8-11.1,10.5-17.2
	C-173.3,384.1-178.6,380.5-180.2,384.2z"/>
</svg>
