<?xml version="1.0" encoding="utf-8"?>
<!-- Generator: Adobe Illustrator 19.0.0, SVG Export Plug-In . SVG Version: 6.00 Build 0)  -->
<svg version="1.1" id="Layer_1" xmlns="http://www.w3.org/2000/svg" xmlns:xlink="http://www.w3.org/1999/xlink" x="0px" y="0px"
	 viewBox="-255 347 100 100" style="enable-background:new -255 347 100 100;" xml:space="preserve">
<style type="text/css">
	.st0{fill:#FFFFFF;}
</style>
<g>
	<g>
		<path class="st0" d="M-205.8,354.3c-28.8,0-43.2,14.3-43.2,42.8s14.4,42.8,43.2,42.8c28.8,0,43.2-14.2,43.2-42.8
			S-176.9,354.3-205.8,354.3z M-180.5,423.1c-5.3,5.5-13.7,8.2-25.2,8.2c-11.4,0-19.8-2.7-25.1-8.2c-5.3-5.5-8-14.2-8-26
			c0-11.8,2.7-20.5,8-26c5.3-5.5,13.7-8.2,25.1-8.2c11.5,0,19.9,2.7,25.2,8.2c5.3,5.5,7.9,14.2,7.9,26
			C-172.6,408.9-175.2,417.6-180.5,423.1z"/>
		<path class="st0" d="M-191.3,381.9c-2-2-5.3-2-7.4,0c-2,2-2,5.3,0,7.4l2.5,2.5h-32c-2.6,0-4.8,2.3-4.8,5.2c0,2.9,2.1,5.2,4.8,5.2
			h32.2l-2.6,2.6c-2,2-2,5.3,0,7.4s5.3,2,7.4,0l11.4-11.4c1-1,1.5-2.4,1.5-3.8c0,0,0-0.1,0-0.1c0-1.9-0.9-3.5-2.3-4.4L-191.3,381.9z
			"/>
	</g>
</g>
</svg>
