<svg xmlns="http://www.w3.org/2000/svg" xmlns:xlink="http://www.w3.org/1999/xlink" version="1.1" viewBox="0 0 96 96" x="0px" y="0px"><path d="M27.64 14c-0.512 0-1.024-0.196-1.416-0.584l-10-10c-0.78-0.772-0.78-2.048 0-2.828 0.772-0.772 2.048-0.772 2.828 0l10 10c0.772 0.78 0.772 2.056 0 2.828-0.388 0.388-0.9 0.584-1.412 0.584z" fill="#fff"></path><path d="M17.64 14c-1.1 0-2-0.9-2-2v-10c0-1.1 0.9-2 2-2h10c1.1 0 2 0.9 2 2s-0.896 2-2 2h-8v8c0 1.1-0.896 2-2 2z" fill="#fff"></path><path d="M17.64 32c-0.512 0-1.024-0.196-1.412-0.584-0.78-0.772-0.78-2.048 0-2.828l10-10c0.772-0.772 2.048-0.772 2.828 0 0.772 0.78 0.772 2.056 0 2.828l-10 10c-0.392 0.388-0.904 0.584-1.416 0.584z" fill="#fff"></path><path d="M27.64 32h-10c-1.1 0-2-0.9-2-2v-10c0-1.1 0.9-2 2-2s2 0.9 2 2v8h8c1.1 0 2 0.9 2 2s-0.896 2-2 2z" fill="#fff"></path><path d="M61.636 32c-0.512 0-1.024-0.196-1.416-0.584l-10-10c-0.772-0.772-0.772-2.048 0-2.828 0.78-0.772 2.056-0.772 2.828 0l10 10c0.78 0.78 0.78 2.056 0 2.828-0.388 0.388-0.9 0.584-1.412 0.584z" fill="#fff"></path><path d="M61.64 32h-10c-1.1 0-2-0.9-2-2s0.9-2 2-2h8v-8c0-1.1 0.9-2 2-2s2 0.9 2 2v10c0 1.1-0.896 2-2 2z" fill="#fff"></path><path d="M51.636 14c-0.512 0-1.024-0.196-1.416-0.584-0.772-0.772-0.772-2.048 0-2.828l10-10c0.78-0.772 2.056-0.772 2.828 0 0.78 0.78 0.78 2.056 0 2.828l-10 10c-0.388 0.388-0.9 0.584-1.412 0.584z" fill="#fff"></path><path d="M61.64 14c-1.1 0-2-0.9-2-2v-8h-8c-1.1 0-2-0.9-2-2s0.9-2 2-2h10c1.1 0 2 0.9 2 2v10c0 1.1-0.896 2-2 2z" fill="#fff"></path><path d="M65.024 96h-22.6c-9.488 0-16.204-14.644-22.116-27.572-2.252-4.904-4.364-9.524-6.132-12.016-2.584-3.632-2.416-8.148 0.416-10.976 2.968-2.968 8.336-3.084 11.232-0.188l5.84 5.884v-32.868c0-4.228 3.664-7.8 8-7.8 4.416 0 8 3.46 8 7.716v17.32c1.176-0.656 2.548-1.032 4-1.032 3.444 0 6.464 2.252 7.564 5.296 1.268-0.82 2.796-1.296 4.436-1.296 3.444 0 6.464 2.252 7.564 5.296 1.268-0.82 2.796-1.296 4.436-1.296 4.336 0 8 3.58 8 7.796v21.64c0 16.772-17.164 23.672-17.9 23.956-0.248 0.092-0.496 0.14-0.74 0.14zM20.376 47.064c-1.116 0-2.204 0.436-2.968 1.216-1.656 1.656-1.148 4.18 0.028 5.828 1.98 2.796 4.084 7.38 6.508 12.664 4.88 10.648 11.564 25.24 18.48 25.24h22.2c2.216-0.976 15.028-7.224 15.028-20.084v-21.64c0-2.064-1.832-3.804-4-3.804s-4 1.712-4 3.72c0 1.1-0.9 2-2 2s-2-0.9-2-2v-3.924c0-2.064-1.832-3.804-4-3.804s-4 1.712-4 3.72c0 1.1-0.9 2-2 2s-2-0.9-2-2v-3.916c0-2.064-1.832-3.804-4-3.804s-4 1.712-4 3.72c0 1.1-0.9 2-2 2s-2-0.9-2-2v-24c0-2.008-1.832-3.72-4-3.72s-4 1.752-4 3.804v37.72c0 0.812-0.488 1.54-1.244 1.852-0.752 0.304-1.604 0.132-2.18-0.432l-9.252-9.312c-0.664-0.688-1.584-1.044-2.6-1.044z" fill="#fff"></path></svg>