<?xml version="1.0" encoding="utf-8"?>
<!-- Generator: Adobe Illustrator 19.0.0, SVG Export Plug-In . SVG Version: 6.00 Build 0)  -->
<svg version="1.1" id="Layer_1" xmlns="http://www.w3.org/2000/svg" xmlns:xlink="http://www.w3.org/1999/xlink" x="0px" y="0px"
	 viewBox="-257 349 96 96" style="enable-background:new -257 349 96 96;" xml:space="preserve">
<style type="text/css">
	.st0{fill:#FFFFFF;}
	.st1{fill:#FFFFFF;stroke:#000000;stroke-width:4;stroke-miterlimit:10;}
</style>
<path class="st0" d="M-229.4,363c-0.5,0-1-0.2-1.4-0.6l-10-10c-0.8-0.8-0.8-2,0-2.8c0.8-0.8,2-0.8,2.8,0l10,10
	c0.8,0.8,0.8,2.1,0,2.8C-228.3,362.8-228.8,363-229.4,363z"/>
<path class="st0" d="M-239.4,363c-1.1,0-2-0.9-2-2v-10c0-1.1,0.9-2,2-2h10c1.1,0,2,0.9,2,2s-0.9,2-2,2h-8v8
	C-237.4,362.1-238.3,363-239.4,363z"/>
<path class="st0" d="M-239.4,381c-0.5,0-1-0.2-1.4-0.6c-0.8-0.8-0.8-2,0-2.8l10-10c0.8-0.8,2-0.8,2.8,0c0.8,0.8,0.8,2.1,0,2.8
	l-10,10C-238.3,380.8-238.8,381-239.4,381z"/>
<path class="st0" d="M-229.4,381h-10c-1.1,0-2-0.9-2-2v-10c0-1.1,0.9-2,2-2s2,0.9,2,2v8h8c1.1,0,2,0.9,2,2S-228.3,381-229.4,381z"/>
<path class="st0" d="M-195.4,381c-0.5,0-1-0.2-1.4-0.6l-10-10c-0.8-0.8-0.8-2,0-2.8c0.8-0.8,2.1-0.8,2.8,0l10,10
	c0.8,0.8,0.8,2.1,0,2.8C-194.3,380.8-194.9,381-195.4,381z"/>
<path class="st0" d="M-195.4,381h-10c-1.1,0-2-0.9-2-2s0.9-2,2-2h8v-8c0-1.1,0.9-2,2-2s2,0.9,2,2v10
	C-193.4,380.1-194.3,381-195.4,381z"/>
<path class="st0" d="M-205.4,363c-0.5,0-1-0.2-1.4-0.6c-0.8-0.8-0.8-2,0-2.8l10-10c0.8-0.8,2.1-0.8,2.8,0c0.8,0.8,0.8,2.1,0,2.8
	l-10,10C-204.3,362.8-204.9,363-205.4,363z"/>
<path class="st0" d="M-195.4,363c-1.1,0-2-0.9-2-2v-8h-8c-1.1,0-2-0.9-2-2s0.9-2,2-2h10c1.1,0,2,0.9,2,2v10
	C-193.4,362.1-194.3,363-195.4,363z"/>
<path class="st1" d="M-192,445h-22.6c-9.5,0-16.2-14.6-22.1-27.6c-2.3-4.9-4.4-9.5-6.1-12c-2.6-3.6-2.4-8.1,0.4-11
	c3-3,8.3-3.1,11.2-0.2l5.8,5.9v-32.9c0-4.2,3.7-7.8,8-7.8c4.4,0,8,3.5,8,7.7v17.3c1.2-0.7,2.5-1,4-1c3.4,0,6.5,2.3,7.6,5.3
	c1.3-0.8,2.8-1.3,4.4-1.3c3.4,0,6.5,2.3,7.6,5.3c1.3-0.8,2.8-1.3,4.4-1.3c4.3,0,8,3.6,8,7.8v21.6c0,16.8-17.2,23.7-17.9,24
	C-191.5,445-191.7,445-192,445z M-236.6,396.1c-1.1,0-2.2,0.4-3,1.2c-1.7,1.7-1.1,4.2,0,5.8c2,2.8,4.1,7.4,6.5,12.7
	c4.9,10.6,11.6,25.2,18.5,25.2h22.2c2.2-1,15-7.2,15-20.1v-21.6c0-2.1-1.8-3.8-4-3.8s-4,1.7-4,3.7c0,1.1-0.9,2-2,2s-2-0.9-2-2v-3.9
	c0-2.1-1.8-3.8-4-3.8s-4,1.7-4,3.7c0,1.1-0.9,2-2,2s-2-0.9-2-2v-3.9c0-2.1-1.8-3.8-4-3.8s-4,1.7-4,3.7c0,1.1-0.9,2-2,2s-2-0.9-2-2
	v-24c0-2-1.8-3.7-4-3.7s-4,1.8-4,3.8V405c0,0.8-0.5,1.5-1.2,1.9c-0.8,0.3-1.6,0.1-2.2-0.4l-9.3-9.3
	C-234.7,396.4-235.6,396.1-236.6,396.1z"/>
</svg>
