<?xml version="1.0" encoding="utf-8"?>
<!-- Generator: Adobe Illustrator 19.0.0, SVG Export Plug-In . SVG Version: 6.00 Build 0)  -->
<svg version="1.1" id="Layer_1" xmlns="http://www.w3.org/2000/svg" xmlns:xlink="http://www.w3.org/1999/xlink" x="0px" y="0px"
	 viewBox="-255 347 100 100" style="enable-background:new -255 347 100 100;" xml:space="preserve">
<style type="text/css">
	.st0{fill:#FCFCFC;}
</style>
<g>
	<g>
		<path class="st0" d="M-205.8,439.8c28.8,0,43.2-14.2,43.2-42.8s-14.4-42.8-43.2-42.8c-28.8,0-43.2,14.3-43.2,42.8
			S-234.6,439.8-205.8,439.8z M-230.9,371c5.3-5.5,13.7-8.2,25.1-8.2c11.5,0,19.9,2.7,25.2,8.2c5.3,5.5,7.9,14.2,7.9,26
			c0,11.8-2.6,20.5-7.9,26c-5.3,5.5-13.7,8.2-25.2,8.2c-11.4,0-19.8-2.7-25.1-8.2c-5.3-5.5-8-14.2-8-26
			C-238.9,385.2-236.2,376.5-230.9,371z"/>
		<path class="st0" d="M-220.2,412.1c2,2,5.3,2,7.4,0c2-2,2-5.3,0-7.4l-2.5-2.5h32c2.6,0,4.8-2.3,4.8-5.2s-2.1-5.2-4.8-5.2h-32.2
			l2.6-2.6c2-2,2-5.3,0-7.4c-2-2-5.3-2-7.4,0l-11.4,11.4c-1,1-1.5,2.4-1.5,3.8c0,0,0,0.1,0,0.1c0,1.9,0.9,3.5,2.3,4.4L-220.2,412.1z
			"/>
	</g>
</g>
</svg>
